<svg width="83" height="83" viewBox="0 0 83 83" fill="none" xmlns="http://www.w3.org/2000/svg">
<g filter="url(#filter0_d_601_64)">
<circle cx="41.5" cy="37.5" r="37.5" fill="white"/>
</g>
<path d="M55.7143 34.625H45.4286V24.5C45.4286 23.2576 44.405 22.25 43.1429 22.25H40.8571C39.595 22.25 38.5714 23.2576 38.5714 24.5V34.625H28.2857C27.0236 34.625 26 35.6326 26 36.875V39.125C26 40.3674 27.0236 41.375 28.2857 41.375H38.5714V51.5C38.5714 52.7424 39.595 53.75 40.8571 53.75H43.1429C44.405 53.75 45.4286 52.7424 45.4286 51.5V41.375H55.7143C56.9764 41.375 58 40.3674 58 39.125V36.875C58 35.6326 56.9764 34.625 55.7143 34.625Z" fill="#500C11"/>
<defs>
<filter id="filter0_d_601_64" x="0" y="0" width="83" height="83" filterUnits="userSpaceOnUse" color-interpolation-filters="sRGB">
<feFlood flood-opacity="0" result="BackgroundImageFix"/>
<feColorMatrix in="SourceAlpha" type="matrix" values="0 0 0 0 0 0 0 0 0 0 0 0 0 0 0 0 0 0 127 0" result="hardAlpha"/>
<feOffset dy="4"/>
<feGaussianBlur stdDeviation="2"/>
<feComposite in2="hardAlpha" operator="out"/>
<feColorMatrix type="matrix" values="0 0 0 0 0 0 0 0 0 0 0 0 0 0 0 0 0 0 0.25 0"/>
<feBlend mode="normal" in2="BackgroundImageFix" result="effect1_dropShadow_601_64"/>
<feBlend mode="normal" in="SourceGraphic" in2="effect1_dropShadow_601_64" result="shape"/>
</filter>
</defs>
</svg>
